# xmcd
#
# Track frame offsets:
#	150
#	14310
#	31215
#	45370
#	71670
#	89052
#	106345
#	119240
#	135947
#	154842
#	169545
#	182707
#
# Disc length: 2877 seconds
#
# Revision: 7
# Processed by: cddbd v1.5.2PL0 Copyright (c) Steve Scherf et al.
# Submitted via: audiograbber 1.83.01
#
DISCID=9a0b3b0c
DTITLE=Various Artist - New Country - March 1995
DYEAR=1995
DGENRE=Country
TTITLE0=Brother Phelps - Anyway The Wind Blows
TTITLE1=Greg Trooper and The Flatirons - Blind Spot
TTITLE2=John Berry - Every Time My Heart Calls Your Name
TTITLE3=Carla Olson - Reap The Whirlwind
TTITLE4=Todd Rash - I Would If I Could (But I Can't, So Won't)
TTITLE5=Essra Mohawk - Whatever It Takes
TTITLE6=The Vidalias - Faking It
TTITLE7=Diamond Rio - Bubba Hyde
TTITLE8=Midsouth - Without You (I Haven't Got A Prayer)
TTITLE9=Boy Howdy - True To His Word
TTITLE10=Tom Dryer - Busiest Memory In Town
TTITLE11=Terry Allen - New Delhi Freight Train
EXTD=
EXTT0=BROTHER PHELPS
EXTT1=GREG TROOPER (WITH THE FLATIRONS)
EXTT2=JOHN BERRY
EXTT3=CARLA OLSON
EXTT4=TODD RASH
EXTT5=ESSRA MOHAWK
EXTT6=THE VIDALIAS
EXTT7=DIAMOND RIO
EXTT8=MIDSOUTH
EXTT9=BOY HOWDY
EXTT10=TOM DRYER
EXTT11=TERRY ALLEN
PLAYORDER=
